# xmcd
#
# Track frame offsets: 
#        150
#        9255
#        25823
#        39650
#        51353
#        65558
#        79710
#        99430
#        112303
#        124320
#        143420
#        153103
#        166548
#        182465
#        203143
#        218070
#        228118
#        256590
#        270143
#        283680
#
# Disc length: 3978 seconds
#
# Revision: 4
# Processed by: cddbd v1.5.2PL0 Copyright (c) Steve Scherf et al.
# Submitted via: ExactAudioCopy v1.0b1
#
DISCID=fb0f8814
DTITLE=Charles, Ray - Anthology
DYEAR=1988
DGENRE=Blues
TTITLE0=Hit The Road Jack
TTITLE1=Georgia On My Mind
TTITLE2=Let's Go Get Stoned
TTITLE3=I Don't Need No Doctor
TTITLE4=Hallelujah I Love Her So
TTITLE5=One Mint Julep
TTITLE6=That Lucky Old Sun
TTITLE7=Unchain My Heart
TTITLE8=Don't Set Me Free
TTITLE9=I Can't Stop Loving You
TTITLE10=Busted
TTITLE11=Crying Time
TTITLE12=Cry
TTITLE13=What'd I Say
TTITLE14=Here We Go Again
TTITLE15=Sticks And Stones
TTITLE16=I Gotta Woman
TTITLE17=Eleanor Rigby
TTITLE18=You Are My Sunshine
TTITLE19=Borne To Lose
EXTD=
EXTT0=
EXTT1=
EXTT2=
EXTT3=
EXTT4=
EXTT5=
EXTT6=
EXTT7=
EXTT8=
EXTT9=
EXTT10=
EXTT11=
EXTT12=
EXTT13=
EXTT14=
EXTT15=
EXTT16=
EXTT17=
EXTT18=
EXTT19=
PLAYORDER=
